<?xml version="1.0" encoding="UTF-8" standalone="no"?>
<!-- Generator: Adobe Illustrator 19.0.0, SVG Export Plug-In . SVG Version: 6.00 Build 0)  -->

<svg
   version="1.1"
   id="Layer_1"
   x="0px"
   y="0px"
   viewBox="0 0 300 300"
   xml:space="preserve"
   sodipodi:docname="tt_logo.svg"
   width="300"
   height="300"
   inkscape:export-filename="tt_logo.png"
   inkscape:export-xdpi="189.44"
   inkscape:export-ydpi="189.44"
   inkscape:version="1.4.2 (unknown)"
   xmlns:inkscape="http://www.inkscape.org/namespaces/inkscape"
   xmlns:sodipodi="http://sodipodi.sourceforge.net/DTD/sodipodi-0.dtd"
   xmlns="http://www.w3.org/2000/svg"
   xmlns:svg="http://www.w3.org/2000/svg"><defs
   id="defs1" /><sodipodi:namedview
   id="namedview1"
   pagecolor="#ffffff"
   bordercolor="#666666"
   borderopacity="1.0"
   inkscape:showpageshadow="2"
   inkscape:pageopacity="0.0"
   inkscape:pagecheckerboard="0"
   inkscape:deskcolor="#d1d1d1"
   inkscape:zoom="6.0566667"
   inkscape:cx="150"
   inkscape:cy="150"
   inkscape:window-width="3840"
   inkscape:window-height="2072"
   inkscape:window-x="0"
   inkscape:window-y="0"
   inkscape:window-maximized="1"
   inkscape:current-layer="g1" />
<g
   id="g1"
   transform="translate(-191,-79.5)">
	<path
   id="path1"
   d="M 341 96.400391 C 296.5 96.400391 257.10039 118.30039 232.90039 151.90039 C 225.00039 162.90039 218.70039 175.10078 214.40039 188.30078 L 236 188.30078 L 288.09961 188.30078 L 288.09961 278.40039 L 327.40039 278.40039 L 327.40039 254.09961 L 350.09961 254.09961 L 350.09961 341.90039 C 347.09961 342.20039 344.00039 342.30078 340.90039 342.30078 C 278.70039 342.30078 228.09961 291.7 228.09961 229.5 C 228.09961 219.2 229.49961 209.30039 232.09961 199.90039 L 211.09961 199.90039 C 208.89961 209.40039 207.80078 219.3 207.80078 229.5 C 207.80078 302.9 267.50039 362.59961 340.90039 362.59961 C 344.00039 362.59961 346.99961 362.50078 350.09961 362.30078 C 351.79961 362.20078 353.49922 362.00078 355.19922 361.80078 L 355.59961 361.80078 C 367.39961 360.50078 378.70039 357.7 389.40039 353.5 L 389.40039 254.09961 L 428 254.09961 L 428 217.69922 L 327.5 217.69922 L 327.5 188.19922 L 366 188.19922 L 366 151.80078 L 260.98828 151.80078 L 260.5 150.55469 C 280.92761 129.68237 309.52142 116.69922 341 116.69922 C 403.2 116.69922 453.80078 167.3 453.80078 229.5 C 453.80078 269.6 432.79922 304.90039 401.19922 324.90039 L 401.19922 348.30078 C 444.49922 326.30078 474.19922 281.3 474.19922 229.5 C 474.09922 156.1 414.4 96.400391 341 96.400391 z " />
</g>
</svg>
